# xmcd
#
# Track frame offsets:
#	150
#	11774
#	20399
#	31949
#	42198
#	55047
#	68086
#	81297
#	95169
#	106860
#
# Disc length: 1576 seconds
#
# Revision: 0
# Processed by: cddbd v1.5.2PL0 Copyright (c) Steve Scherf et al.
# Submitted via: dBpowerAMP V4.0
#
DISCID=7506260a
DTITLE=Patti MacDonnell - Yellow House Of Love
DYEAR=1975
DGENRE=Country
TTITLE0=Jesse
TTITLE1=A Song For Him
TTITLE2=Everybody's Talking
TTITLE3=Yellow House Of Love
TTITLE4=Sing It Out Loud  
TTITLE5=Merry-Go-Round 
TTITLE6=The Best Thing That I've Done
TTITLE7=I'll Be Seeing You Someday
TTITLE8=Goodbye Sunshine
TTITLE9=Wide Oval Harry
EXTD=
EXTT0=
EXTT1=
EXTT2=
EXTT3=
EXTT4=
EXTT5=
EXTT6=
EXTT7=
EXTT8=
EXTT9=
PLAYORDER=
